<?xml version="1.0" encoding="UTF-8"?>
<svg xmlns="http://www.w3.org/2000/svg" xmlns:xlink="http://www.w3.org/1999/xlink" width="512px" height="512px" viewBox="0 0 512 512" version="1.1">
<g id="surface1">
<path style="fill:none;stroke-width:2;stroke-linecap:butt;stroke-linejoin:miter;stroke:rgb(100%,100%,100%);stroke-opacity:1;stroke-miterlimit:4;" d="M 21.999939 12 C 21.999939 17.522827 17.522827 21.999939 12 21.999939 C 6.477173 21.999939 2.000061 17.522827 2.000061 12 C 2.000061 6.477173 6.477173 2.000061 12 2.000061 C 17.522827 2.000061 21.999939 6.477173 21.999939 12 Z M 21.999939 12 " transform="matrix(21.333333,0,0,21.333333,0,0)"/>
<path style="fill:none;stroke-width:2;stroke-linecap:round;stroke-linejoin:round;stroke:rgb(100%,100%,100%);stroke-opacity:1;stroke-miterlimit:4;" d="M 15 9.947205 C 14.499939 9.299927 13.799927 8.499939 12 8.499939 C 10.200073 8.499939 9 9.513977 9 9.947205 C 9 10.380615 9.067932 10.927734 9.999939 11.499939 C 10.752136 11.961731 12.668335 12.043945 13.5 12.500061 C 14.679016 13.14679 14.84967 13.820251 14.84967 14.052246 C 14.84967 14.683777 13.417419 15.485229 12 15.500061 C 10.536072 15.515259 9.500061 14.700073 9 14.052246 " transform="matrix(21.333333,0,0,21.333333,0,0)"/>
<path style="fill:none;stroke-width:1.5;stroke-linecap:round;stroke-linejoin:round;stroke:rgb(100%,100%,100%);stroke-opacity:1;stroke-miterlimit:4;" d="M 12 6.999939 L 12 17.000061 " transform="matrix(21.333333,0,0,21.333333,0,0)"/>
</g>
</svg>
